<?xml version="1.0" encoding="UTF-8"?><svg id="Ebene_1" xmlns="http://www.w3.org/2000/svg" viewBox="0 0 364.69 289.6"><defs><style>.cls-1{fill:#020b53;stroke:#fff;stroke-miterlimit:10;stroke-width:3px;}.cls-1,.cls-2{fill-rule:evenodd;}.cls-3{fill:#fff;}.cls-3,.cls-2{stroke-width:0px;}.cls-2{fill:#e61f20;}</style></defs><path class="cls-3" d="m1.62,114.19c.42-.79.84-1.59,1.25-2.39.41-.43.81-.88,1.2-1.33.14-.05.27-.12.38-.26.05-.07.1-.14.16-.2h0s.02-.02.03-.04c.28-.36.55-.72.8-1.1.04-.05.07-.1.1-.14.51-.63,1.02-1.26,1.52-1.91.02-.02.04-.05.06-.07.34.25.81.29,1.21-.12,1.27-1.3,2.38-2.76,3.26-4.34.38.24.88.27,1.21-.13.97-1.19,1.9-2.42,2.8-3.66-.06.12-.13.24-.19.36-.61,1.13,1.08,2.13,1.73,1.01.93-1.61,1.89-3.21,2.87-4.79.55-.64,1.09-1.29,1.63-1.95.3.78,1.45.91,1.86-.06.36-.87.78-1.72,1.15-2.59.39-.01.77-.23.94-.69.45-1.24.86-2.65.91-4.04.07-.06.13-.12.19-.2.72-.94,1.12-2.09,1.27-3.29,1.58-2.94,1.68-7.08-.85-8.69-.06-.04-.12-.07-.18-.1-.36-2.13-1.08-4.28-2.46-5.91-1.41-1.66-3.99-2.45-5.69-.74-.13.13-.24.29-.35.43-.83-2.87-2.09-5.63-3.36-8.05-.16-.3-.4-.44-.65-.48-.07-.2-.14-.4-.21-.6,2.74-4.67,5.85-8.69,9.24-11.94.18,1.05.61,2.1,1.22,2.99.28.41.77.55,1.18.42.36,1.31.71,2.61,1.12,3.86,1.08,3.28,2.49,7.37,5.65,9.24.03.06.06.13.1.2.5.95,1.76.4,1.83-.47.03-.1.05-.21.04-.34-.37-3.22-1.38-6.32-2.57-9.33-.72-3.77-1.23-7.59-2.53-11.21-.01-.04-.04-.07-.06-.1,4.22-2.67,8.75-4.21,13.47-4.43-.44,2.46-.47,4.97-.47,7.48,0,.77.7,1.06,1.27.92.08.38.16.76.26,1.13.15.62.63.79,1.08.69.11.31.23.63.34.94.06.9.3,1.75.66,2.58.05.88.15,1.77.31,2.65.08.44.47.67.87.7.11.46.22.92.32,1.38.12.57.55.76.97.7.12,1.46.28,2.92.52,4.37.11.63.64.8,1.13.67.2.68.41,1.35.66,2.01.05.13.12.24.2.34.12.39.25.77.39,1.15.27.73,1.41,1,1.81.32.28.99,1.84.86,1.94-.29.12-1.34.26-2.68.41-4.01.89-3.5,2.13-6.91,2.87-10.46.24-1.14.46-2.37.59-3.61.23-.94.43-1.88.57-2.82.04-.29-.04-.56-.18-.77.16-.27.31-.55.45-.83,5.91,4.1,11.16,10.43,15.41,18.39-.02.08-.05.15-.05.24,0,.85,0,1.69.05,2.53.02.83.03,1.65.02,2.48-.01.03-.03.05-.04.09-.3,1.36-.33,2.75-.33,4.14,0,.5.37.82.78.93,0,.1.02.21.02.31-.47,1.18-.76,2.46-.95,3.71-.03.17-.05.35-.08.53-.15.45-.24.91-.3,1.37-.66-.2-1.38.29-1.23,1.16.37,2.19,2.31,3.48,4.13,4.45.86.46,1.74.91,2.58,1.41.35.37.69.74,1,1.13.14.17.34.24.55.27.17.24.33.48.49.73.2.33.55.48.9.46.51.93,1.03,1.87,1.48,2.82.13.27.32.42.54.47,1.1,6.53,1.7,13.43,1.7,20.58,0,28.86-9.62,53.81-23.61,65.84-.25-.44-.51-.88-.77-1.31-.53-1.26-1.11-2.5-1.73-3.72-1.18-3.97-3.09-7.67-5.23-11.25-.11-.32-.21-.63-.33-.95.19-3.55-.83-6.95-2.13-10.22-.33-.83-1.41-.91-1.81-.26,0-.05,0-.11,0-.16.04-.14.05-.3.03-.47-.05-.28-.09-.56-.13-.84-.16-1.62-.42-3.23-.76-4.82-.07-.34-.26-.54-.48-.64.03-.58.01-1.15-.04-1.72-.01-2.28-.41-4.59-1.1-6.79.1-.19.16-.41.11-.67-.46-2.61-.44-5.35-1.64-7.76.05-.64-.49-1.45-1.23-1.14-.34.14-.64.34-.91.55-.01,0-.02-.02-.03-.03-1.02-.69-2-.61-2.75-.09-.52-.14-1.04-.24-1.56-.18-.25.03-.47.15-.64.3-.54-.4-1.28-.55-2.3-.27-.62.17-.84.8-.64,1.32-.12-.12-.23-.24-.38-.33-.53-.33-1.24-.03-1.44.53-.76-.64-1.75-.84-3.06-.33-.38.15-.71.52-.74.92-.21-.12-.43-.24-.67-.32-.57-.21-1.14.26-1.24.8-.62-.33-1.33-.5-2.15-.39-.76.1-1.24.77-.86,1.5.01.03.03.06.04.09-.38-.08-.79-.06-1.24.09-.15.05-.29.15-.41.26-.16-.1-.3-.22-.46-.31-.62-.32-1.58.06-1.5.86,0,.1.03.19.04.29-.67-.8-1.41-1.55-2.26-2.19-.77-.58-1.61.38-1.47,1.13.09.5.23.99.39,1.48-.27-.06-.54-.1-.81-.06-.87.12-1.18.58-1.19,1.18,0,.02-.02.03-.02.04-.26-.07-.49-.04-.67.07-.12-.17-.23-.33-.33-.5-.33-.52-.89-.56-1.31-.34-.4-.33-.83-.64-1.28-.91-.14-.08-.28-.11-.42-.12-.54-.42-1.09-.84-1.66-1.23-.96-.66-1.87.69-1.26,1.49-.14.09-.26.2-.35.33-.29-.36-.57-.72-.85-1.08-.26-.33-.61-.38-.92-.28-.09-.11-.19-.21-.28-.32-.38-.47-1.02-.35-1.4.02-.08-.14-.16-.27-.24-.41-.2-.39-.57-.52-.92-.48-.06-.16-.12-.32-.17-.48-.23-.64-.83-.79-1.31-.63-.15-.49-.31-.98-.48-1.46-.23-.65-.85-.82-1.34-.61-.31-3.02-.52-6.11-.61-9.26.02-.03.04-.06.06-.09Z"/><path class="cls-3" d="m20.22,68.19c1.28-1.11,2.77.61,3.36,1.64.56.97.95,2.06,1.21,3.18-.46.04-.9.17-1.33.37-.5-1.56-1.24-3.07-2.3-4.22-.02-.05-.04-.11-.06-.16-.18-.49-.58-.7-.98-.69.04-.04.06-.08.1-.11Z"/><path class="cls-2" d="m67.59,102.36c-.38-.08-.85.04-1.09.29v-19.27c.23-.11.41-.28.49-.51.42-1.27.82-2.55.9-3.87h294.61v53H78.88c.03-.44.06-.88.11-1.31.02-.16.04-.32.06-.48.01-.07.02-.15.03-.22,0-.04.02-.08.02-.1.06-.29.13-.57.23-.86.15-.43-.18-.84-.71-.97-.52-.13-1.11.15-1.25.55-.04.12-.07.25-.11.38.05-.27.01-.53-.11-.74.06-.28.1-.56.15-.84.4-2.66.65-5.34,1.04-8,.05-.33-.11-.54-.34-.67.64-.34.65-1.33.04-1.7.18-.62.35-1.24.5-1.87.25-1.08-1.68-1.53-1.93-.45-.32,1.34-.74,2.66-1.12,4-.16.09-.29.22-.38.4-.41.85-.81,1.71-1.18,2.57-.26-.51-1.09-.69-1.62-.27-.2.15-.39.3-.59.45,0-.02,0-.05,0-.07.39-.57.74-1.16,1.04-1.73.78-1.52,1.35-3.26.72-4.86.28-2.12.27-4.34,1.13-6.33.42-.97-1.54-1.38-1.95-.42-.09.21-.17.43-.24.65-.33-.19-.77-.25-1.08-.05-.52.32-.94.71-1.32,1.13-.05.04-.11.08-.16.13-.38.45-.67.93-.94,1.43-.03.05-.05.1-.08.14-.02.04-.04.08-.06.12-.16.3-.32.61-.46.92-.07.15-.13.3-.2.45-.51.52-1.05,1.03-1.61,1.53v-4.99c.28-.09.52-.26.59-.5.59-2,.77-4.05,1.21-6.07.09-.42-.14-.85-.71-.97Z"/><path class="cls-1" d="m1.51,116.51c.08.53,1.8,5.15,2.2,6.18,1.08,2.76,1.49,2.64,4.17,3.73,3.97,1.62,7.63,3.9,12.16,1.99,7.97-3.36,17.34-5.86,27.28-4.85.93,2.01,2.56,13.21,3.24,16.46,5.65,26.98,12.89,32.2,15.92,42.14,1.95-2.04,3.22-8.29,4.3-11.44l8.49-23.09c1.26-3.74,1.8-8.68,3.54-11.74,3.57,11.17-5.17,45.18-1.39,53.86,1.25,2.89,2.17,3.64,4.85,5.29l6.27,3.65c-13.32.29-28.04-1.88-41.28-2.29-6.72-.2-12.16,2.53-12.47,8.87-.19,3.89,1.97,5.13,3.64,7.14,1.74,2.09,3.18,3.95,4.84,5.85l9.69,11.73c14.09,17.47,9.26,16.81,22.59,20.26,3.84,1,14.44,3.13,18.23,2.73-11.72-18.26-10.18-10.34-18-14.82-2.54-1.46-.09-.92-3.4-2.25-1.83-.74-1.99-.52-3.39-1.66-1.79-1.45-18.14-20.9-19.37-24.08,13.44,1.67,6.09-.23,12.07,6.03,3.59,3.76,8.66,7.53,12.65,11l16.54,15.01c4.54,4.28,11.49,13,18.68,12.34,8.64-.79,17.91-3.42,26.26-5.2-.64-.88-.1-.27-.9-1l-2.06-1.39c-17.8-10.89-11.36-8.74-23.63-5.04l-5.15-2.77c-4.45-1.99-9.55-7.16-12.9-10.21-2.73-2.49-5.81-4.89-8.44-7.32-3.04-2.81-5.07-4.15-7.62-7.16,5.56-.09,15.69,1.83,21.76,2.43,3.96.39,7.7.44,11.82.68,6.41.37,19.61,10.85,53.66,2.01,7.24-1.88,33.74-11.04,40.15-8.97,1.03.33,17.45,17.13,30.94,17.53-8.71-7.43-15.85-19.84-31-22.52-6.5-1.15-11.89.14-17.36-.6-1.2.89-27.17,6.04-30.78,6.5-7.26.92-27.28,1.33-31.93-2.87,3.8-4.99,4.97-5.55,4.18-13.52l-2.53-6.2c6.35-4.29,26.22-7.69,35.29-8.24,13.41-.81,26.65,1.26,37.53,6.23,10.66,4.87,17.05,12.91,23.33,20.59,16.22,19.82,29.69,29.57,57.45,29.74,18.16.11,23.66.67,33.09,10.97,7.06,7.71,14.07,15.16,20.31,23.61,2.42,3.27,1.53,3.59,5.94,5.38l3.34,2.19c2.41,2.37,15.34,7.61,18.35,8.24-.88-3.68-3.08-7.74-4.77-11.05-.94-1.84-1.77-3.37-2.76-5.15-2.76-4.97-6.54-2.85-9.85-5.91l-4.77-3.15c-3.7-1.9-18.13-21.74-21.1-25.64-10.92-14.34-6.49-13.03-17.54-13.67-8.53-.5-18.52-2.69-24.34-6.98-6.6-4.87-6.39-14.85-8.51-22.42-4.2-15.04-15.49-29.04-26.14-35.58,14.21,2.83,25.56,12.85,32.93,23.66,2.44,3.59,4.35,8.59,6.95,11.84-1.73-39.04-44.46-47.91-76.09-46.49-12.78.57-26.24,1.69-38.83-.42-11.97-2.01-19.94-6.98-30.64-9.94-23.06-6.38-19.35,3.41-29.96-10.59-5.39-7.11-10.36-16.87-15.55-25-5.84-9.14-10.9-16.33-18.57-22.05,1.53-9.85,3.12-13.67-.39-23.8-1.79-5.16-7.11-14.98-10.26-17.07-3.71,6.28-5.51,21.55-7.3,29.61l-.62,1.77c-4.88-10.67-15.48-22.66-12.76-39.21.66-4.01,1.76-7.25,3.61-10.04,1.52-2.29,4.06-5.19,6.25-6.71,7.11-4.93,12.72-3.91,21.53-3.27-7.38-6.59-28.73-6.09-37.67,11.35-9.34,18.23-2.46,29.81,1.64,46.2-2.56-2.24-9.92-12.9-12.25-16.6-3.51-5.6-7.9-12.69-7.53-21.25.4-9.19,4.39-15.46,9.02-19.72,3.29-3.02,13.02-8.95,18.84-8.61C24.62-.52,8.82,13.68,8.3,32.88c-.27,9.93,3.8,19.34,7.7,26.82,2.06,3.95,3.91,7.03,6.33,10.58,1.92,2.79,6,7.57,6.99,9.94-5.65,11.08,4.29,3.04-12.94,19.76-2.34,2.27-15.27,13.79-14.87,16.54Zm49.62-29.27c-4.71,1.88-5.2,1.43-7.49,5.72-.33-4.6,2.65-6.61,7.49-5.72Zm5.17,40.31c3.18-2.4,6-5.12,8.5-8.63.02-.19.1-.39.3-.56.08-.07.16-.16.24-.23.18-.26.36-.52.53-.79,4.04-6.31,3.34-6.44,5.35-11.56l1.19-2.2c.28,2.77.38,5.01.35,6.99.07.14.11.29.09.45-.02.17-.08.33-.12.5-.19,5.09-1.27,8.51-2.36,14.89.47-.5,1-.94,1.52-1.39,3.25-4.16,5.75-12.52,6.21-16.44,1.82,7.17.99,17.37-.78,24.74-1.04,4.33-5.7,17.5-8.11,19.56l-3.59,6.88c-3.29-7.64-7.14-17.74-8.25-26.6l-1.05-5.62Zm-48.63-6.84c2.39-.58,4.64-1.25,5.75-3.46,2.3-4.58-.58-2.16,4.28-5.24,3.99-2.53,7.6-4.64,11.55-7.05,2.87-1.76,9.22-6.26,12.4-6.45,3.13-.19,5.8.6,8.4-.9,2.69-1.56,2.05-3.4,3.46-6.14,1.44-.86,3.53-1.14,5.39-1.9,8.89-3.67,3.16-6.53,3.36-20.05.06-4.21,1.53-12.4,3.61-15.1,5.07,10.48,3.62,17.15,1.22,28.61-2.4,11.44.8,19.51-7.3,27.13-8.39,7.89-21.98,4.61-39.31,12.5-4.73,2.15-3.58.97-9.43-.54l-3.4-1.42Z"/><path class="cls-3" d="m109.25,104.72l1.81-2.32h13.36c2.62,0,3.89-.92,3.89-2.7,0-2.24-1.86-2.52-5.04-2.52h-6.87c-4.3,0-6.31-1.65-6.31-4.63s2.09-4.86,6.77-4.86h13.77l-1.78,2.34h-12.19c-2.6,0-3.89.92-3.89,2.7,0,2.16,1.81,2.42,5.04,2.42h6.87c4.15,0,6.29,1.5,6.29,4.58,0,3.26-2.06,4.99-6.74,4.99h-14.97Z"/><path class="cls-3" d="m133.23,104.72v-17.03h18.07l-1.81,2.34h-13.52v5.12h14.53l-1.58,2.04h-12.96v5.22h15.45l-1.81,2.32h-16.39Z"/><path class="cls-3" d="m158.46,104.72l1.68-2.32h11.86l-7.84-11.81-9.55,14.13h-3.26l11.05-16.21c.36-.53.97-1.04,1.81-1.04s1.43.46,1.81,1.04l10.89,16.21h-18.45Z"/><path class="cls-3" d="m187.64,104.72v-5.68c0-3.13,2.27-4.73,6.49-4.73h8.25c.97,0,1.3-.23,1.3-.84s-.33-.81-1.3-.81h-14.1l3.77-4.96h9.88c5.27,0,7.43,2.14,7.43,5.42,0,2.93-2.06,4.94-6.41,4.94h-8.25c-.94,0-1.35.25-1.35.92v.87h16.14l-3.82,4.89h-18.02Z"/><path class="cls-3" d="m220.35,104.72l1.81-2.32h13.36c2.62,0,3.89-.92,3.89-2.7,0-2.24-1.86-2.52-5.04-2.52h-6.87c-4.3,0-6.31-1.65-6.31-4.63s2.09-4.86,6.77-4.86h13.77l-1.78,2.34h-12.19c-2.6,0-3.89.92-3.89,2.7,0,2.16,1.81,2.42,5.04,2.42h6.87c4.15,0,6.29,1.5,6.29,4.58,0,3.26-2.06,4.99-6.74,4.99h-14.97Z"/><path class="cls-3" d="m262.1,87.69h2.77v9.6c0,5.14-3.31,7.71-9.88,7.71-7.61,0-10.89-2.57-10.89-7.71v-9.6h2.75v9.6c0,3.82,2.27,5.42,8.15,5.42s7.1-1.6,7.1-5.42v-9.6Z"/><path class="cls-3" d="m292.5,104.72l-4.76-13.69-5.68,12.85c-.41.92-.99,1.07-1.63,1.07s-1.22-.15-1.63-1.07l-5.68-12.85-4.79,13.69h-2.7l5.6-15.96c.28-.84.87-1.3,1.58-1.3s1.27.41,1.58,1.02l6.08,13.39,6.08-13.39c.25-.61.81-1.02,1.55-1.02s1.3.46,1.6,1.3l5.52,15.96h-2.75Z"/><path class="cls-3" d="m322.79,104.72l-4.76-13.69-5.68,12.85c-.41.92-.99,1.07-1.63,1.07s-1.22-.15-1.63-1.07l-5.68-12.85-4.79,13.69h-2.7l5.6-15.96c.28-.84.87-1.3,1.58-1.3s1.27.41,1.58,1.02l6.08,13.39,6.08-13.39c.25-.61.81-1.02,1.55-1.02s1.3.46,1.6,1.3l5.52,15.96h-2.75Z"/><path class="cls-3" d="m327.46,104.72v-17.03h2.75v17.03h-2.75Z"/><path class="cls-3" d="m340.87,104.72v-14.69h-9.04l1.86-2.34h19.7l-1.81,2.34h-7.94v14.69h-2.78Z"/><path class="cls-3" d="m112.3,122.75v-10.18h7.34v2.23h-4.57v1.75h4.2v2.23h-4.2s0,1.75,0,1.75h4.55v2.23h-7.32Z"/><path class="cls-3" d="m134.48,112.57v10.18h-2.31l-3.68-5.35h-.06v5.35h-2.76v-10.18h2.35l3.62,5.33h.08v-5.33h2.76Z"/><path class="cls-3" d="m144.37,122.75h-3.92v-10.18h3.88c1.05,0,1.95.2,2.72.61s1.35.99,1.77,1.75.62,1.67.62,2.73-.21,1.97-.62,2.73-1,1.34-1.76,1.75c-.76.41-1.66.61-2.69.61Zm-1.15-2.35h1.05c.5,0,.93-.08,1.29-.24.36-.16.63-.44.82-.84.19-.4.28-.95.28-1.66s-.09-1.26-.29-1.66c-.19-.4-.47-.68-.84-.84-.37-.16-.81-.24-1.34-.24h-.97v5.49Z"/><path class="cls-3" d="m161.4,112.57h2.76v6.52c0,.78-.19,1.45-.55,2.01s-.88,1-1.54,1.31c-.66.31-1.42.46-2.3.46s-1.65-.15-2.31-.46c-.66-.31-1.17-.74-1.54-1.31-.37-.56-.55-1.24-.55-2.01v-6.52h2.76s0,6.28,0,6.28c0,.31.07.6.21.84.14.25.33.44.58.58.25.14.53.21.84.21s.6-.07.85-.21c.25-.14.44-.33.58-.58.14-.25.21-.53.21-.84v-6.28Z"/><path class="cls-3" d="m170.14,122.75v-10.18h4.39c.76,0,1.42.14,1.98.41.57.27,1.01.67,1.32,1.19.31.52.47,1.14.47,1.86s-.16,1.34-.48,1.84-.78.88-1.36,1.13c-.58.26-1.26.38-2.04.38h-2.62v-2.15h2.07c.33,0,.6-.04.83-.12.23-.08.41-.21.53-.39.12-.18.19-.41.19-.7s-.06-.53-.19-.71-.3-.32-.53-.41-.51-.13-.83-.13h-.97v7.97h-2.76Zm5.97-4.67l2.55,4.67h-3l-2.49-4.67h2.94Z"/><path class="cls-3" d="m186.79,122.75h-2.98l3.36-10.18h3.78l3.36,10.18h-2.98l-2.23-7.38h-.08l-2.23,7.38Zm-.56-4.02h5.61v2.07h-5.61v-2.07Z"/><path class="cls-3" d="m208.76,112.57v10.18h-2.31l-3.68-5.35h-.06v5.35h-2.76v-10.18h2.35l3.62,5.33h.08v-5.33h2.76Z"/><path class="cls-3" d="m224.24,116.39h-2.8c-.02-.23-.07-.44-.16-.63-.08-.19-.2-.35-.35-.49-.15-.14-.33-.24-.53-.32-.21-.07-.45-.11-.71-.11-.46,0-.86.11-1.18.34-.32.23-.56.55-.73.97s-.25.93-.25,1.52c0,.62.08,1.14.25,1.56.17.42.41.73.73.94s.7.32,1.15.32c.25,0,.48-.03.69-.1.2-.06.38-.16.53-.28.15-.12.27-.27.37-.44.09-.17.16-.37.19-.59l2.8.02c-.03.43-.15.87-.36,1.31s-.5.86-.89,1.23c-.38.38-.86.68-1.42.91-.56.23-1.22.34-1.96.34-.93,0-1.77-.2-2.51-.6-.74-.4-1.33-.99-1.75-1.77-.43-.78-.64-1.73-.64-2.86s.22-2.09.66-2.87,1.03-1.37,1.77-1.77c.74-.4,1.57-.6,2.49-.6.64,0,1.23.09,1.78.26.54.18,1.01.43,1.42.77.41.34.74.75.98,1.24.25.49.4,1.05.45,1.69Z"/><path class="cls-3" d="m230.15,122.75v-10.18h7.34v2.23h-4.57v1.75h4.2v2.23h-4.2v1.75h4.55v2.23h-7.32Z"/><path class="cls-3" d="m254.96,122.75h-3.01l1.69-10.18h3.14c.97,0,1.77.2,2.4.61.63.41,1.07,1,1.31,1.76.25.76.28,1.68.1,2.75-.18,1.06-.51,1.96-1.01,2.72-.5.76-1.14,1.33-1.92,1.74s-1.68.6-2.7.6Zm-1.94-.84h1.98c.87,0,1.63-.18,2.28-.53.65-.35,1.18-.85,1.59-1.5.41-.65.68-1.42.83-2.31.15-.88.13-1.62-.04-2.25s-.52-1.1-1.02-1.43c-.5-.33-1.17-.5-2-.5h-2.2l-1.41,8.51Z"/><path class="cls-3" d="m269.28,112.57l-1.69,10.18h-.93l1.69-10.18h.93Z"/><path class="cls-3" d="m276.66,112.57l1.7,8.97h.09l4.67-8.97h.97l-5.39,10.18h-.99l-2.01-10.18h.97Z"/><path class="cls-3" d="m291.42,112.57l-1.69,10.18h-.93l1.69-10.18h.93Z"/><path class="cls-3" d="m303.89,115.17c.02-.6-.15-1.06-.53-1.4-.38-.34-.9-.51-1.58-.51-.47,0-.91.08-1.29.24-.39.16-.71.39-.96.67-.25.29-.41.61-.47.98-.04.27-.02.5.06.71.08.2.21.38.38.52.17.14.37.27.59.37.22.1.45.19.68.26l1.03.31c.3.09.61.2.91.34s.57.31.81.52.41.47.52.77.14.67.07,1.09c-.09.55-.31,1.04-.66,1.47s-.81.77-1.37,1.03c-.57.25-1.22.38-1.97.38-.69,0-1.28-.12-1.75-.35-.47-.23-.82-.55-1.05-.96s-.31-.88-.26-1.42h.96c-.03.4.04.74.23,1.02s.45.49.8.63c.35.14.75.22,1.21.22.51,0,.97-.08,1.4-.26.42-.17.78-.41,1.05-.72s.45-.66.51-1.07c.06-.34.02-.63-.12-.87s-.36-.43-.65-.59c-.29-.16-.64-.3-1.05-.42l-1.16-.36c-.76-.24-1.32-.57-1.69-.99-.37-.42-.5-.96-.4-1.61.09-.55.32-1.03.68-1.45s.81-.74,1.35-.97c.54-.23,1.13-.35,1.76-.35s1.17.12,1.62.35c.45.23.78.56.99.97.22.41.3.89.24,1.42h-.9Z"/><path class="cls-3" d="m313.19,112.57l-1.69,10.18h-.93l1.69-10.18h.93Z"/><path class="cls-3" d="m328.05,117.72c-.18,1.05-.51,1.96-1.01,2.74-.5.78-1.11,1.38-1.83,1.8s-1.51.64-2.36.64-1.61-.22-2.21-.65c-.6-.43-1.02-1.05-1.27-1.84-.25-.79-.29-1.72-.11-2.79.18-1.05.51-1.96,1.01-2.74.5-.78,1.11-1.38,1.84-1.8.73-.42,1.51-.63,2.37-.63s1.59.22,2.19.65c.6.43,1.02,1.05,1.27,1.84.25.79.29,1.72.11,2.8Zm-.89-.11c.15-.9.13-1.68-.06-2.32-.19-.64-.52-1.13-.98-1.47s-1.02-.51-1.68-.51-1.31.18-1.91.53c-.6.35-1.11.85-1.53,1.51s-.71,1.45-.87,2.37c-.15.91-.13,1.68.06,2.32.19.64.52,1.13.98,1.47.46.34,1.02.51,1.68.51s1.32-.18,1.92-.53c.6-.35,1.11-.86,1.53-1.51.42-.66.7-1.45.85-2.37Z"/><path class="cls-3" d="m343.74,112.57l-1.69,10.18h-.9l-4.6-8.53h-.08l-1.42,8.53h-.93l1.69-10.18h.9l4.62,8.54h.08l1.42-8.54h.92Z"/></svg>